<?xml version="1.0" standalone="no"?>
<!DOCTYPE svg PUBLIC "-//W3C//DTD SVG 20010904//EN"
 "http://www.w3.org/TR/2001/REC-SVG-20010904/DTD/svg10.dtd">
<svg version="1.0" xmlns="http://www.w3.org/2000/svg"
 width="700.000000pt" height="700.000000pt" viewBox="0 0 700.000000 700.000000"
 preserveAspectRatio="xMidYMid meet">
<metadata>
Created by potrace 1.14, written by Peter Selinger 2001-2017
</metadata>
<g transform="translate(0.000000,700.000000) scale(0.100000,-0.100000)"
fill="#000000" stroke="none">
<path d="M291 6553 c-36 -6 -80 -18 -97 -27 -61 -32 -123 -96 -156 -164 l-33
-67 0 -330 c0 -181 3 -344 7 -362 24 -121 149 -236 278 -258 25 -4 1479 -8
3232 -8 3059 0 3188 1 3237 19 103 37 194 130 225 233 12 36 14 115 13 376
l-2 330 -26 55 c-46 99 -113 160 -215 195 -46 16 -249 17 -3223 19 -2357 1
-3191 -2 -3240 -11z"/>
<path d="M442 4806 c-6 -11 -5 -3346 2 -3396 24 -183 68 -313 154 -460 124
-212 326 -382 542 -455 179 -61 45 -58 2340 -58 1152 0 2122 3 2156 7 481 50
872 466 920 976 8 91 10 3378 1 3386 -10 10 -6108 10 -6115 0z m3568 -628 c20
-13 50 -65 50 -89 0 -12 -90 -310 -221 -734 -81 -262 -124 -400 -183 -595 -31
-102 -65 -212 -76 -245 -17 -53 -195 -633 -361 -1175 -33 -107 -65 -206 -72
-219 -38 -77 -168 -72 -198 7 -15 38 -8 79 36 217 20 66 45 147 55 180 10 33
57 186 105 340 48 154 91 294 95 310 5 17 17 59 29 95 11 36 52 169 91 295 39
127 89 289 111 360 22 72 56 182 75 245 20 63 39 126 44 140 5 14 24 77 43
140 20 63 53 174 75 245 22 72 57 184 77 250 54 178 65 203 98 231 24 21 37
24 68 20 21 -3 47 -11 59 -18z m-1234 -672 c49 -33 63 -101 31 -150 -8 -11
-173 -180 -367 -373 l-352 -353 352 -352 c194 -194 359 -362 366 -373 62 -94
-45 -209 -144 -156 -22 12 -805 792 -828 825 -19 28 -18 86 4 116 28 42 791
799 825 820 35 22 75 20 113 -4z m1541 14 c42 -16 841 -817 854 -857 7 -24 7
-42 0 -66 -8 -22 -138 -159 -424 -445 -227 -226 -419 -412 -427 -413 -8 0 -23
-2 -34 -4 -69 -13 -136 82 -107 153 6 15 171 186 366 381 195 195 355 358 355
362 0 4 -159 166 -353 361 -195 194 -359 363 -365 375 -26 48 0 121 51 147 38
19 47 19 84 6z"/>
</g>
</svg>
